<svg id="Layer_1" data-name="Layer 1" xmlns="http://www.w3.org/2000/svg" viewBox="0 0 111.34 83.08"><defs><style>.cls-1{fill:none;stroke:#231f20;stroke-miterlimit:10;}</style></defs><title>DoDo 2016</title><path class="cls-1" d="M84.94,11.78a2,2,0,0,0,1.2,1.7,7.27,7.27,0,0,0,2.8.6,8.28,8.28,0,0,0,2.9-.6,2.08,2.08,0,0,0,1.1-1.7,1.8,1.8,0,0,0-1.1-1.5,5.43,5.43,0,0,0-2.9-.7,4.86,4.86,0,0,0-2.8.7A1.76,1.76,0,0,0,84.94,11.78Z" transform="translate(0 0)"/><path class="cls-1" d="M96.54,39c8.1-2.1,12.8-5.4,14.1-10,1.8-5.9-8.3-9.4-30.2-10.4l0.6,8a85.87,85.87,0,0,1-.2,10.3V37l-0.3,3.8C87.74,40.38,93.14,39.88,96.54,39Z" transform="translate(0 0)"/><path class="cls-1" d="M63.34,16.08a69.16,69.16,0,0,0,17.1,2.5,95,95,0,0,0-1.8-10.9l-1.8-7.1A81.68,81.68,0,0,0,63.64,4c-4.5,1.7-6.6,4.1-6.7,6.8C56.94,13,59.14,14.68,63.34,16.08Z" transform="translate(0 0)"/><path class="cls-1" d="M30,41.18l-22.2-1.1-6-1c-1.4,0-1.7,1.6-.9,5,1.5,7,6.4,14.4,14.7,22.1,11.7,11,23.4,16.4,34.9,16.4a22.47,22.47,0,0,0,15.8-6.2,36.55,36.55,0,0,0,7.3-10.2,70.94,70.94,0,0,0,6.9-25.4C62.74,41.58,45.84,41.68,30,41.18Z" transform="translate(0 0)"/><path class="cls-1" d="M75,24.68a1.75,1.75,0,0,0-1.6-1.1,1.86,1.86,0,0,0-1.6,1.1,6.24,6.24,0,0,0-.6,2.9,6.39,6.39,0,0,0,.6,2.8,2,2,0,0,0,1.6,1.2,1.88,1.88,0,0,0,1.6-1.2,6.39,6.39,0,0,0,.6-2.8A6.24,6.24,0,0,0,75,24.68Z" transform="translate(0 0)"/><path class="cls-1" d="M80.54,40.78c7.2-.4,12.6-0.9,16-1.8,8.1-2.1,12.8-5.4,14.1-10,1.8-5.9-8.3-9.4-30.2-10.4" transform="translate(0 0)"/><path class="cls-1" d="M73.44,23.58a1.86,1.86,0,0,0-1.6,1.1,6.24,6.24,0,0,0-.6,2.9,6.39,6.39,0,0,0,.6,2.8,2,2,0,0,0,1.6,1.2,1.88,1.88,0,0,0,1.6-1.2,6.39,6.39,0,0,0,.6-2.8,6.24,6.24,0,0,0-.6-2.9,1.75,1.75,0,0,0-1.6-1.1" transform="translate(0 0)"/><path class="cls-1" d="M80.44,18.58a95,95,0,0,0-1.8-10.9l-1.8-7.1A81.68,81.68,0,0,0,63.64,4c-4.5,1.7-6.6,4.1-6.7,6.8,0,2.2,2.2,3.9,6.4,5.3a69.16,69.16,0,0,0,17.1,2.5" transform="translate(0 0)"/><line class="cls-1" x1="80.84" y1="36.98" x2="80.54" y2="40.78"/><path class="cls-1" d="M80.44,18.58l0.6,8a85.87,85.87,0,0,1-.2,10.3V37" transform="translate(0 0)"/><path class="cls-1" d="M80.54,40.78c-17.8.8-34.7,0.9-50.5,0.4l-22.2-1.1-6-1c-1.4,0-1.7,1.6-.9,5,1.5,7,6.4,14.4,14.7,22.1,11.7,11,23.4,16.4,34.9,16.4a22.47,22.47,0,0,0,15.8-6.2" transform="translate(0 0)"/><path class="cls-1" d="M66.34,76.38a36.55,36.55,0,0,0,7.3-10.2,70.94,70.94,0,0,0,6.9-25.4" transform="translate(0 0)"/><path class="cls-1" d="M86.14,13.48a7.27,7.27,0,0,0,2.8.6,8.28,8.28,0,0,0,2.9-.6,2.08,2.08,0,0,0,1.1-1.7,1.8,1.8,0,0,0-1.1-1.5,5.43,5.43,0,0,0-2.9-.7,4.86,4.86,0,0,0-2.8.7,1.76,1.76,0,0,0-1.2,1.5,2,2,0,0,0,1.2,1.7" transform="translate(0 0)"/></svg>